<svg width="50" height="40" viewBox="0 0 50 40" fill="none" xmlns="http://www.w3.org/2000/svg">
<path d="M41.82 1.82004C42.6652 1.01537 43.7899 0.570523 44.9569 0.579353C46.1238 0.588182 47.2417 1.05 48.0746 1.86737C48.9076 2.68473 49.3904 3.79371 49.4213 4.96029C49.4521 6.12686 49.0285 7.25981 48.24 8.12004L24.3 38.06C23.8883 38.5034 23.3915 38.8593 22.8392 39.1062C22.2868 39.3532 21.6904 39.4863 21.0855 39.4975C20.4806 39.5087 19.8796 39.3978 19.3185 39.1714C18.7574 38.9451 18.2478 38.6079 17.82 38.18L1.94397 22.304C1.50185 21.8921 1.14724 21.3953 0.901284 20.8433C0.655332 20.2913 0.52308 19.6954 0.512419 19.0912C0.501758 18.487 0.612908 17.8868 0.839234 17.3265C1.06556 16.7661 1.40243 16.2571 1.82974 15.8298C2.25705 15.4025 2.76605 15.0656 3.32638 14.8393C3.88671 14.613 4.48689 14.5018 5.09111 14.5125C5.69532 14.5232 6.2912 14.6554 6.8432 14.9014C7.3952 15.1473 7.892 15.5019 8.30397 15.944L20.868 28.502L41.706 1.95204C41.7435 1.90585 41.7835 1.86178 41.826 1.82004H41.82Z" fill="#8ACF1F"/>
</svg>
