<svg width="16" height="10" viewBox="0 0 16 10" fill="none" xmlns="http://www.w3.org/2000/svg">
<path d="M8 0.52C2.7512 0.52 0 4.3856 0 5C0 5.6128 2.7512 9.48 8 9.48C13.248 9.48 16 5.6128 16 5C16 4.3856 13.248 0.52 8 0.52ZM8 8.4456C6.036 8.4456 4.444 6.9032 4.444 5C4.444 3.0968 6.036 1.5528 8 1.5528C9.964 1.5528 11.5552 3.0968 11.5552 5C11.5552 6.9032 9.964 8.4456 8 8.4456ZM8 5C7.6744 4.6424 8.5304 3.2768 8 3.2768C7.0176 3.2768 6.2216 4.0488 6.2216 5C6.2216 5.9512 7.0176 6.7232 8 6.7232C8.9816 6.7232 9.7784 5.9512 9.7784 5C9.7784 4.5624 8.2768 5.3032 8 5Z" fill="#F24E1E"/>
</svg>
