<svg width="16" height="16" viewBox="0 0 16 16" fill="none" xmlns="http://www.w3.org/2000/svg">
<path d="M14.8168 1.1824C14.6668 1.03242 14.4633 0.948172 14.2512 0.948172C14.0391 0.948172 13.8356 1.03242 13.6856 1.1824L1.184 13.6856C1.10759 13.7594 1.04665 13.8477 1.00472 13.9453C0.962792 14.0429 0.940723 14.1479 0.9398 14.2541C0.938877 14.3603 0.959118 14.4656 0.999343 14.564C1.03957 14.6623 1.09897 14.7516 1.17408 14.8267C1.2492 14.9018 1.33852 14.9612 1.43684 15.0015C1.53515 15.0417 1.6405 15.0619 1.74672 15.061C1.85294 15.0601 1.95792 15.038 2.05552 14.9961C2.15313 14.9542 2.2414 14.8932 2.3152 14.8168L14.816 2.3136C14.966 2.16358 15.0502 1.96013 15.0502 1.748C15.0502 1.53587 14.966 1.33242 14.816 1.1824H14.8168ZM2.4864 10.7984L4.5344 8.7504C4.476 8.50449 4.44568 8.25275 4.444 8C4.444 6.0968 6.036 4.5528 8 4.5528C8.2288 4.5528 8.4512 4.5784 8.668 4.6184L9.6304 3.6568C9.0915 3.56752 8.54625 3.52204 8 3.5208C2.752 3.52 0 7.3848 0 8C0 8.3384 0.8456 9.672 2.4864 10.7976V10.7984ZM13.516 5.204L11.4664 7.252C11.5216 7.4936 11.5552 7.7424 11.5552 8C11.5552 9.9032 9.964 11.4456 8 11.4456C7.7728 11.4456 7.552 11.42 7.3368 11.3808L6.3736 12.3432C6.8872 12.4264 7.4264 12.4792 8 12.4792C13.248 12.4792 16 8.6128 16 8C16 7.6608 15.1552 6.328 13.516 5.204V5.204Z" fill="#F24E1E"/>
</svg>
